<?xml version="1.0" encoding="UTF-8"?>
<!-- Generated by Pixelmator Pro 4.0 -->
<svg width="3000" height="1000" viewBox="0 0 3000 1000" xmlns="http://www.w3.org/2000/svg">
    <g id="Logo-Vectorizado-copia">
        <path id="Crculo" fill="#ffffff" fill-rule="evenodd" stroke="none" d="M 679.125 493 L 679 491.148438 C 674.115845 326.090454 536.346436 196.245728 371.287109 201.133606 C 206.227753 206.021484 76.383072 343.790894 81.270927 508.85022 C 86.058044 670.508362 218.306839 798.388123 378.81958 798.997803 L 679.125 798.945313 Z"/>
        <linearGradient id="linearGradient1" x1="175.185821" y1="618.633782" x2="586.344775" y2="421.401303" gradientUnits="userSpaceOnUse">
            <stop offset="0.163802" stop-color="#0140f9" stop-opacity="1"/>
            <stop offset="0.31822" stop-color="#0977fa" stop-opacity="1"/>
            <stop offset="0.592318" stop-color="#024dc2" stop-opacity="1"/>
            <stop offset="0.80649" stop-color="#030a35" stop-opacity="1"/>
            <stop offset="0.973274" stop-color="#020225" stop-opacity="1"/>
        </linearGradient>
        <path id="U" fill="url(#linearGradient1)" fill-rule="evenodd" stroke="none" d="M 604.101563 436.9375 L 494.125 436.9375 L 494.085938 662.921875 C 324.639893 688.177063 357.714508 483.8396 348.853516 426.60437 C 344.833893 379.765198 302.690643 342.93811 251.297729 342.93811 C 199.225342 342.93811 156.648849 379.407104 153.580231 427.014343 C 153.432999 428.170654 153.462509 429.2948 153.494904 430.419373 L 153.40625 432.53125 C 153.403198 435.779053 153.586365 438.995422 153.943604 442.168823 C 160.436066 578.497803 214.252335 715.890991 494.091156 717.397583 L 604.101563 717.40625 Z"/>
    </g>
    <text id="Flouvia" xml:space="preserve" x="768" y="839" font-family="Heiti TC" font-size="637" fill="#ffffff">Flouvia</text>
</svg>
