<?xml version="1.0" encoding="UTF-8"?>
<!-- Generated by Pixelmator Pro 4.0 -->
<svg width="6000" height="6000" viewBox="0 0 6000 6000" xmlns="http://www.w3.org/2000/svg">
    <g id="Logo-Horizontal-copia-copia">
        <g id="Logo-Vectorizado-copia">
            <linearGradient id="linearGradient1" x1="1415.850374" y1="3913.24374" x2="4439.115522" y2="2167.731219" gradientUnits="userSpaceOnUse">
                <stop offset="0.164543" stop-color="#0140f9" stop-opacity="1"/>
                <stop offset="0.30826" stop-color="#0977fa" stop-opacity="1"/>
                <stop offset="0.590761" stop-color="#024dc2" stop-opacity="1"/>
                <stop offset="0.822744" stop-color="#030a35" stop-opacity="1"/>
                <stop offset="0.977564" stop-color="#020225" stop-opacity="1"/>
            </linearGradient>
            <path id="Crculo" fill="url(#linearGradient1)" fill-rule="evenodd" stroke="none" d="M 4672.96582 2999.628906 L 4672.23584 2988.819824 C 4643.723145 2025.235107 3839.445313 1267.220215 2875.852539 1295.754883 C 1912.259888 1324.289551 1154.245239 2128.567871 1182.779907 3092.160156 C 1210.726318 4035.897461 1982.775879 4782.440918 2919.825928 4786 L 4672.96582 4785.693359 Z"/>
            <path id="U" fill="#ffffff" fill-rule="evenodd" stroke="none" d="M 4234.989746 2672.343994 L 3592.962402 2672.343994 L 3592.734375 3991.608398 C 2603.532959 4139.044434 2796.617676 2946.151855 2744.888428 2612.020996 C 2721.422607 2338.580566 2475.39624 2123.589355 2175.371826 2123.589355 C 1871.380737 2123.589355 1622.825317 2336.48999 1604.911133 2614.414307 C 1604.051636 2621.164551 1604.223999 2627.727295 1604.413086 2634.292236 L 1603.895508 2646.621094 C 1603.877686 2665.581299 1604.947021 2684.35791 1607.032471 2702.884033 C 1644.93457 3498.752441 1959.106201 4300.834473 3592.764893 4309.629883 L 4234.989746 4309.680176 Z"/>
        </g>
    </g>
</svg>
