<?xml version="1.0" encoding="UTF-8"?>
<!-- Generated by Pixelmator Pro 4.0 -->
<svg width="3000" height="1000" viewBox="0 0 3000 1000" xmlns="http://www.w3.org/2000/svg">
    <g id="Logo-Horizontal-copia">
        <g id="Logo-Vectorizado-copia">
            <linearGradient id="linearGradient1" x1="121.064638" y1="649.5" x2="638.939055" y2="350.5" gradientUnits="userSpaceOnUse">
                <stop offset="0.164543" stop-color="#0140f9" stop-opacity="1"/>
                <stop offset="0.30826" stop-color="#0977fa" stop-opacity="1"/>
                <stop offset="0.590761" stop-color="#024dc2" stop-opacity="1"/>
                <stop offset="0.822744" stop-color="#030a35" stop-opacity="1"/>
                <stop offset="0.977564" stop-color="#020225" stop-opacity="1"/>
            </linearGradient>
            <path id="Crculo" fill="url(#linearGradient1)" fill-rule="evenodd" stroke="none" d="M 678.996765 493.001068 L 678.871765 491.149506 C 673.98761 326.090942 536.217712 196.245728 371.157745 201.133606 C 206.097794 206.021484 76.252632 343.791443 81.140503 508.851349 C 85.927635 670.510132 218.176926 798.39032 378.690247 799 L 678.996765 798.94751 Z"/>
            <path id="U" fill="#ffffff" fill-rule="evenodd" stroke="none" d="M 603.973083 436.938354 L 493.996094 436.938354 L 493.957031 662.923584 C 324.510376 688.178833 357.585114 483.840637 348.72406 426.605225 C 344.704437 379.765869 302.561035 342.93866 251.167938 342.93866 C 199.095352 342.93866 156.518707 379.407776 153.450073 427.015198 C 153.302841 428.171509 153.332352 429.295654 153.364746 430.420227 L 153.276093 432.532104 C 153.273041 435.779907 153.456207 438.996277 153.813446 442.169739 C 160.305939 578.499146 214.122406 715.892883 493.96225 717.399475 L 603.973083 717.408142 Z"/>
        </g>
    </g>
    <text id="Flouvia" xml:space="preserve" x="768" y="839" font-family="Heiti TC" font-size="637" fill="#030831">Flouvia</text>
</svg>
