<?xml version="1.0" encoding="UTF-8"?>
<!-- Generated by Pixelmator Pro 4.0 -->
<svg width="6000" height="6000" viewBox="0 0 6000 6000" xmlns="http://www.w3.org/2000/svg">
    <g id="Logo-Vectorizado">
        <path id="Crculo" fill="#ffffff" fill-rule="evenodd" stroke="none" d="M 4673 4786 L 4673 3037.992188 C 4673.04248 3036.136719 4673.035645 3034.272949 4673.025879 3032.408691 L 4673 3000 L 4672.453125 3000 L 4672.273438 2989.210938 C 4643.737305 2025.649414 3839.488037 1267.661621 2875.929688 1296.195313 C 1912.371216 1324.729004 1154.383667 2128.978271 1182.917236 3092.536621 C 1211.186768 4047.18335 2000.889893 4800.043945 2952.564941 4786.139648 Z"/>
        <linearGradient id="linearGradient1" x1="1731.159331" y1="3733.414468" x2="4131.360625" y2="2582.040655" gradientUnits="userSpaceOnUse">
            <stop offset="0.163802" stop-color="#0140f9" stop-opacity="1"/>
            <stop offset="0.31822" stop-color="#0977fa" stop-opacity="1"/>
            <stop offset="0.592318" stop-color="#024dc2" stop-opacity="1"/>
            <stop offset="0.80649" stop-color="#030a35" stop-opacity="1"/>
            <stop offset="0.973274" stop-color="#020225" stop-opacity="1"/>
        </linearGradient>
        <path id="U" fill="url(#linearGradient1)" fill-rule="evenodd" stroke="none" d="M 4235 2672.726563 L 3593 2672.726563 L 3592.898438 3991.921875 C 2603.607422 4139.458496 2796.699219 2946.543945 2744.970215 2612.414307 C 2721.5354 2339.010254 2475.506104 2124 2175.473877 2124 C 1871.434937 2124 1622.851074 2336.975342 1605.023193 2614.968506 L 1604 2615 C 1604.123535 2620.18457 1604.25708 2625.37085 1604.401123 2630.558105 L 1604 2647 C 1604 2665.858643 1605.056396 2684.522461 1607.117065 2702.938721 C 1644.973145 3498.91748 1959.011475 4301.195801 3592.905273 4309.962891 L 4235 4310 Z"/>
    </g>
</svg>
